<?xml version="1.0" encoding="utf-8"?>
<!-- Generator: Adobe Illustrator 16.0.0, SVG Export Plug-In . SVG Version: 6.00 Build 0)  -->
<!DOCTYPE svg PUBLIC "-//W3C//DTD SVG 1.1//EN" "http://www.w3.org/Graphics/SVG/1.1/DTD/svg11.dtd">
<svg version="1.1" id="Ebene_2" xmlns="http://www.w3.org/2000/svg" xmlns:xlink="http://www.w3.org/1999/xlink" x="0px" y="0px"
	 width="200px" height="40px" viewBox="0 0 200 40" enable-background="new 0 0 200 40" xml:space="preserve">
<g>
	<path fill="#004D51" d="M3.617,30H0V10h6.637l1.904,14.213h0.054L10.499,10H17v20h-4.08V12.921h-0.055L10.254,30H6.283
		L3.672,12.921H3.617V30z"/>
	<path fill="#004D51" d="M36,24.378C36,28.784,33.143,30,30,30c-3.143,0-6-1.216-6-5.622v-8.757C24,11.216,26.857,10,30,10
		c3.144,0,6,1.216,6,5.622V24.378z M28.743,25.405c0,0.784,0.257,1.514,1.257,1.514c1,0,1.257-0.73,1.257-1.514V14.595
		c0-0.784-0.257-1.514-1.257-1.514c-1,0-1.257,0.73-1.257,1.514V25.405z"/>
	<path fill="#004D51" d="M43,30V10h4.514c4.271,0,6.811,0.449,6.811,4.663c0,2.5-1,4.129-3.433,4.55v0.057
		c2.162,0.056,3.433,0.899,3.433,3.764v4.186c0,0.787,0.135,1.966,0.675,2.781h-4.513c-0.541-0.814-0.649-1.994-0.649-2.781v-4.242
		c0-1.404-0.811-2.107-1.622-2.107h-0.73V30H43z M47.486,18.006c2.027,0,2.352-0.703,2.352-2.584c0-1.854-0.297-2.556-2.352-2.556
		V18.006z"/>
	<path fill="#004D51" d="M61,30V10h5.317C69.773,10,72,10.843,72,14.298v3.651c0,3.006-2.488,4.326-5.055,4.326h-1.597V30H61z
		 M65.348,19.41h0.681c1.52,0,1.624-0.899,1.624-3.258c0-2.36-0.104-3.287-1.624-3.287h-0.681V19.41z"/>
	<path fill="#004D51" d="M80,30V10h4.348v7.416h2.305V10H91v20h-4.348v-9.551h-2.305V30H80z"/>
	<path fill="#004D51" d="M135,10h4.4c3.692,0,6.6,0.056,6.6,4.86c0,2.219-0.603,4.213-3.091,4.466v0.196
		c2.776,0,3.091,2.191,3.091,4.775c0,5.505-1.991,5.702-6.6,5.702H135V10z M139.347,18.118c1.362-0.084,2.305,0.393,2.305-2.612
		c0-1.966-0.157-2.781-2.305-2.641V18.118z M139.347,27.135c2.332,0.225,2.305-1.208,2.305-3.286c0-2.837-0.471-2.866-2.305-2.866
		V27.135z"/>
	<path fill="#004D51" d="M162.497,10L165,30h-4.489l-0.517-4.916h-2.45L156.81,30H153l3.293-20H162.497z M159.667,22.051
		l-0.789-8.905h-0.054l-0.789,8.905H159.667z"/>
	<path fill="#004D51" d="M179.257,17.271v-2.703c0-0.946-0.314-1.487-1.257-1.487c-1.028,0-1.257,0.541-1.257,1.487
		c0,3.243,7.257,4.189,7.257,10.135c0,3.622-2.058,5.297-6.029,5.297c-3.029,0-5.971-0.973-5.971-4.297v-3.567h4.743v3.325
		c0,1.134,0.372,1.459,1.257,1.459c0.772,0,1.257-0.325,1.257-1.459c0-4.352-7.257-4.433-7.257-10.649
		c0-3.486,2.428-4.811,6.085-4.811c3.201,0,5.915,1.027,5.915,4.243v3.027H179.257z"/>
	<path fill="#004D51" d="M190,30V10h10v3.034h-5.174v4.382h5v3.034h-5v6.517H200V30H190z"/>
</g>
<path fill="#004D51" d="M123.334,22.138l0.242-0.409L125,20.834l-0.462-0.729l0.341-0.577l-1.125-0.661l-0.377-0.595l-0.307,0.193
	L103.545,7l-1.091,1.844h-0.212v0.357L102,9.609l0.242,0.143v23.763h1.506L104.056,34l0.772-0.485h0.455v-0.286l17.84-11.214
	L123.334,22.138z M105.283,29.646V11.538l14.894,8.746L105.283,29.646z"/>
<g>
	<circle fill="#FFFFFF" cx="104" cy="9" r="5.16"/>
	<path fill="#004D51" d="M104,15c-3.309,0-6-2.691-6-6s2.691-6,6-6s6,2.691,6,6S107.309,15,104,15z M104,4.68
		c-2.382,0-4.32,1.938-4.32,4.32s1.938,4.32,4.32,4.32s4.32-1.938,4.32-4.32S106.382,4.68,104,4.68z"/>
</g>
<g>
	<circle fill="#FFFFFF" cx="104" cy="32" r="5.16"/>
	<path fill="#004D51" d="M104,38c-3.309,0-6-2.691-6-6s2.691-6,6-6s6,2.691,6,6S107.309,38,104,38z M104,27.68
		c-2.382,0-4.32,1.938-4.32,4.32s1.938,4.32,4.32,4.32s4.32-1.938,4.32-4.32S106.382,27.68,104,27.68z"/>
</g>
<g>
	<circle fill="#FFFFFF" cx="123" cy="19.999" r="5.16"/>
	<path fill="#004D51" d="M123,25.999c-3.309,0-6-2.691-6-6c0-3.309,2.691-6,6-6s6,2.691,6,6C129,23.307,126.309,25.999,123,25.999z
		 M123,15.679c-2.382,0-4.32,1.938-4.32,4.32c0,2.382,1.938,4.319,4.32,4.319c2.382,0,4.319-1.938,4.319-4.319
		C127.319,17.617,125.382,15.679,123,15.679z"/>
</g>
</svg>
